<svg width="8" height="10" viewBox="0 0 8 10" fill="none" xmlns="http://www.w3.org/2000/svg">
<rect width="8" height="10" fill="#E5E5E5"/>
<g clip-path="url(#clip0_0_1)">
<rect width="1440" height="5382" transform="translate(-430 -644)" fill="white"/>
<rect x="-430" y="-644" width="1440" height="860" fill="#242A2D"/>
<g filter="url(#filter0_d_0_1)">
<path fill-rule="evenodd" clip-rule="evenodd" d="M-21.6632 81.5664C-18.6672 79.4247 -19.4152 78.1458 -18.0285 75.5819C-16.6356 73.0138 -17.8121 71.9471 -15.457 69.7003C-13.1039 67.4576 -15.8856 65.9605 -12.8917 64.5704C-9.89365 63.1803 -10.3222 65.8554 -12.7825 68.9527C-15.2427 72.0562 -15.6713 72.9088 -12.4631 70.557C-9.25491 68.2052 -8.07836 64.8896 -6.25894 61.1477C-4.44159 57.4058 -3.0487 56.232 -1.44563 56.0157C0.155373 55.8036 0.155365 51.8496 -0.0568619 49.0715C-0.271156 46.2872 -1.12626 43.7233 0.0482254 41.9049C1.22476 40.0885 0.0482178 38.3813 1.54826 38.3813C3.04623 38.3813 5.29218 36.1324 7.6432 33.7806C9.99834 31.4308 11.4963 31.2167 13.9545 31.0004C16.4147 30.7863 15.0259 29.9296 16.629 29.5053C18.2321 29.079 19.3035 27.5798 20.3729 26.616C21.4423 25.6564 25.827 26.7252 28.3944 26.7252C30.9638 26.7252 32.672 26.9393 32.672 25.3371C32.672 23.7329 33.8485 22.4478 35.3486 22.4478C36.8424 22.4478 37.4874 22.0257 37.4874 19.8839C37.4874 17.7483 38.1282 16.4633 39.4098 15.4995C40.6955 14.5398 40.9098 12.4022 41.3384 11.0121C41.767 9.62202 43.1537 10.4725 43.1537 8.44817C43.1537 6.41557 43.9037 4.1729 43.9037 2.56659C43.9037 0.966454 45.614 1.17445 46.364 -0.00145721C47.114 -1.17531 45.7211 -2.66837 46.8976 -5.98602C48.0742 -9.29957 46.8976 -12.3989 46.8976 -15.3912C46.8976 -18.3855 46.8976 -21.487 47.9691 -22.4528C49.0405 -23.4125 48.5048 -23.9459 47.6497 -24.3783C46.7925 -24.8026 47.7569 -25.9785 48.5048 -25.7622C49.2528 -25.5522 50.1079 -23.9459 51.5008 -24.8026C52.8916 -25.6593 54.1732 -29.2941 55.3498 -32.2864C56.5284 -35.2807 58.4529 -35.1715 59.9488 -35.812C61.4488 -36.4566 64.6591 -40.0893 66.6887 -45.3305C68.7203 -50.5675 66.5794 -55.6974 65.7243 -59.3301C64.8672 -62.9711 63.6906 -62.2215 61.556 -62.1144C59.4151 -62.0053 55.3498 -62.5407 50.0028 -68.3152C44.6558 -74.0897 39.4119 -73.6614 35.8843 -72.6976C32.3526 -71.7338 28.7179 -74.4089 26.3628 -74.9423C24.0097 -75.4777 21.7637 -72.4854 20.0535 -71.8429C18.3392 -71.2025 20.9086 -74.4089 21.0158 -76.4395C21.1229 -78.4721 14.5974 -81.3573 9.6769 -83.2807C4.75851 -85.2062 2.61766 -84.2424 2.61766 -81.1431C2.61766 -78.0417 0.693153 -82.1069 -0.804825 -78.7872C-2.30486 -75.4757 -5.08652 -77.6154 -3.26505 -78.6821C-1.44769 -79.7509 0.262512 -82.214 0.905388 -84.2404C1.54826 -86.2709 -6.15386 -87.8814 -8.82632 -86.8064C-11.5029 -85.7376 -9.79269 -81.8886 -11.9294 -83.0645C-14.0703 -84.2404 -12.358 -87.1318 -10.6457 -87.0205C-8.93346 -86.9135 -7.0069 -90.4412 -5.83242 -93.0072C-4.65588 -95.5752 -7.86407 -96.0056 -9.79063 -98.1391C-11.6925 -100.254 -11.2989 -106.422 -13.2502 -107.398C-15.3457 -105.326 -18.1583 -102.089 -18.9516 -99.7125C-19.9674 -96.6729 -21.2696 -98.413 -24.0204 -97.5399C-26.7711 -96.6729 -28.0754 -97.8364 -28.7987 -98.9876C-29.5219 -100.153 -32.2768 -98.9876 -34.1559 -99.1338C-36.0392 -99.28 -34.8833 -96.8191 -36.1855 -96.0901C-37.4878 -95.3693 -40.8196 -97.5378 -41.9776 -96.2342C-43.1356 -94.9327 -43.8588 -96.2342 -44.4378 -95.0768C-45.0189 -93.9215 -47.0464 -94.6423 -47.6254 -93.9215C-48.2064 -93.1966 -50.2298 -92.7642 -52.8405 -95.6596C-55.4449 -98.5469 -55.0122 -103.329 -53.8522 -104.196C-52.6963 -105.063 -52.6963 -107.526 -54.289 -108.253C-55.8818 -108.971 -54.289 -112.015 -56.3124 -112.301C-58.342 -112.59 -58.0515 -109.987 -59.3537 -109.554C-60.6559 -109.12 -63.8435 -106.945 -65.292 -107.235C-66.7406 -107.528 -68.6238 -106.945 -68.6238 -105.357C-68.6238 -103.763 -70.2146 -104.198 -70.5051 -105.497C-70.7935 -106.801 -73.8348 -106.08 -74.7023 -106.945C-75.5718 -107.814 -79.6269 -107.382 -77.8899 -106.368C-76.1529 -105.357 -76.0066 -104.344 -76.0066 -102.75C-76.0066 -101.156 -74.7023 -101.595 -74.7023 -99.7084C-74.7023 -97.8323 -73.2558 -99.1318 -72.2421 -99.1318C-71.2283 -99.1318 -71.2283 -97.3895 -72.819 -97.1074C-74.4118 -96.817 -75.1371 -95.9521 -75.5718 -94.4961C-76.0066 -93.0504 -77.4531 -94.0677 -78.7553 -92.9083C-80.0596 -91.7468 -81.2176 -90.5915 -82.0892 -91.1723C-82.9566 -91.7448 -83.6799 -91.3123 -84.6936 -90.7357C-85.7074 -90.159 -86.1422 -90.7357 -87.5907 -91.893C-88.6745 -92.7621 -89.3545 -94.8544 -91.2769 -96.7594C-92.4225 -96.2157 -94.7488 -95.3755 -95.9995 -95.3755C-97.6891 -95.3755 -102.997 -95.7626 -103.285 -94.8421C-103.574 -93.9298 -102.898 -92.3852 -102.031 -92.1978C-101.161 -92.0001 -99.3293 -91.4709 -101.064 -90.2167C-102.801 -88.9687 -104.347 -90.6492 -104.347 -87.6157C-104.347 -84.5761 -100.448 -82.6052 -101.258 -79.8004C-101.676 -78.3567 -102.249 -74.6478 -102.249 -73.2248C-102.249 -71.7997 -102.816 -66.954 -104.099 -66.6739C-105.383 -66.3835 -106.525 -67.8065 -108.237 -66.3835C-109.949 -64.9584 -112.086 -65.8151 -114.082 -64.2418C-116.079 -62.6787 -118.218 -63.2491 -118.36 -61.3936C-118.504 -59.5402 -120.355 -58.5414 -119.928 -56.8321C-119.499 -55.1228 -120.785 -55.5491 -122.069 -54.2661C-123.351 -52.9831 -121.927 -52.1305 -122.784 -51.1297C-123.641 -50.1309 -122.497 -48.5678 -121.5 -46.9986C-120.503 -45.4293 -119.359 -44.2925 -119.502 -42.8633C-119.646 -41.4403 -118.506 -40.8657 -117.078 -41.014C-115.653 -41.154 -116.796 -38.3039 -114.511 -38.3039C-112.23 -38.3039 -109.949 -37.7334 -109.376 -39.0144C-108.806 -40.2994 -107.237 -41.2961 -107.237 -39.4427C-107.237 -37.5934 -107.666 -32.5994 -106.098 -33.1698C-104.528 -33.7403 -101.39 -33.6044 -99.8197 -33.0319C-98.2537 -32.4614 -96.6857 -33.0319 -95.6864 -34.0286C-94.687 -35.0233 -93.5476 -35.0191 -91.553 -36.1621C-89.5543 -37.3071 -87.7019 -38.7281 -85.8434 -38.7281C-83.991 -38.7281 -80.8529 -39.8731 -81.2835 -38.448C-81.7121 -37.0209 -81.9944 -31.7447 -79.7134 -29.0387C-77.4325 -26.3306 -76.1508 -25.3318 -74.01 -25.616C-71.8691 -25.9043 -72.1555 -24.7655 -70.5854 -24.9014C-69.0174 -25.0435 -70.0147 -23.1942 -68.5868 -23.1942C-67.163 -23.1942 -64.5977 -22.9079 -64.5977 -21.3428C-64.5977 -19.7715 -60.3159 -21.0545 -59.3166 -20.1999C-58.3193 -19.3473 -57.1799 -18.6327 -57.4642 -16.9234C-57.7527 -15.21 -55.3254 -13.927 -56.7492 -13.2165C-58.1792 -12.504 -56.3227 -11.0789 -56.1805 -9.22543C-56.0404 -7.37404 -54.0417 -6.65943 -50.9036 -6.80359C-47.7676 -6.93951 -46.9083 -6.65944 -46.9083 -4.37559C-46.9083 -2.09997 -44.7716 -1.81166 -44.0587 0.328033C-43.3437 2.46362 -44.9138 4.88544 -44.6274 6.59885C-44.411 7.91273 -45.2043 9.30282 -46.0965 9.87739C-44.9962 11.2798 -44.9055 11.91 -45.8925 12.4537C-47.1927 13.1765 -44.2977 15.2009 -45.0209 18.3826C-45.7441 21.5726 -45.8884 22.1472 -42.5566 22.2913C-39.2309 22.4375 -39.5194 23.4487 -38.3614 22.7238C-37.2013 21.9989 -35.4664 25.1848 -35.0316 26.7849C-34.5969 28.3727 -33.2947 32.131 -32.7157 32.131C-32.1325 32.131 -30.3976 30.3929 -28.6606 31.2661C-27.0452 32.0713 -29.0583 37.5081 -29.116 39.8908C-27.9085 39.8475 -26.4312 39.8517 -25.9428 40.0967C-25.0754 40.5354 -24.6427 46.3799 -25.0733 47.4652C-25.5081 48.5443 -29.0871 49.5184 -30.9271 50.7108C-32.7672 51.9031 -37.2117 56.1269 -39.2721 59.4858C-40.4899 61.4772 -42.2722 63.1206 -43.525 64.556C-42.9295 64.6425 -42.4268 64.6198 -42.0888 64.4695C-41.1142 64.0329 -39.5956 64.0329 -37.9699 65.9811C-36.3421 67.9334 -36.4513 69.4511 -35.8023 69.344C-35.1512 69.2308 -34.3908 66.743 -33.0927 68.5862C-31.7926 70.4252 -28.434 71.8338 -27.6757 72.7008C-26.9174 73.5678 -24.4242 74.2186 -24.4242 76.4921C-24.4242 78.119 -25.1928 81.1978 -23.9174 83.805C-23.3033 83.006 -22.6048 82.2378 -21.6632 81.5664Z" fill="#2A3033"/>
</g>
<circle cx="3" cy="5" r="12" fill="#00CC8F"/>
<path d="M8 5L0.5 9.33013L0.5 0.669872L8 5Z" fill="#242A2D"/>
</g>
<defs>
<filter id="filter0_d_0_1" x="-132.532" y="-117.047" width="209.518" height="215.023" filterUnits="userSpaceOnUse" color-interpolation-filters="sRGB">
<feFlood flood-opacity="0" result="BackgroundImageFix"/>
<feColorMatrix in="SourceAlpha" type="matrix" values="0 0 0 0 0 0 0 0 0 0 0 0 0 0 0 0 0 0 127 0" result="hardAlpha"/>
<feOffset dy="4.72357"/>
<feGaussianBlur stdDeviation="4.72357"/>
<feColorMatrix type="matrix" values="0 0 0 0 0 0 0 0 0 0 0 0 0 0 0 0 0 0 0.01 0"/>
<feBlend mode="normal" in2="BackgroundImageFix" result="effect1_dropShadow_0_1"/>
<feBlend mode="normal" in="SourceGraphic" in2="effect1_dropShadow_0_1" result="shape"/>
</filter>
<clipPath id="clip0_0_1">
<rect width="1440" height="5382" fill="white" transform="translate(-430 -644)"/>
</clipPath>
</defs>
</svg>
